<?xml version="1.0" standalone="no"?>
<!DOCTYPE svg PUBLIC "-//W3C//DTD SVG 20010904//EN"
 "http://www.w3.org/TR/2001/REC-SVG-20010904/DTD/svg10.dtd">
<svg version="1.0" xmlns="http://www.w3.org/2000/svg"
 width="48.000000pt" height="48.000000pt" viewBox="0 0 48.000000 48.000000"
 preserveAspectRatio="xMidYMid meet">
<metadata>
Created by potrace 1.16, written by Peter Selinger 2001-2019
</metadata>
<g transform="translate(0.000000,48.000000) scale(0.100000,-0.100000)"
fill="#000000" stroke="none">
<path d="M0 387 c0 -59 4 -97 12 -105 9 -9 9 -12 0 -12 -15 0 -16 -42 -2 -56
8 -8 8 -19 0 -38 -5 -15 -10 -54 -10 -87 0 -67 14 -82 52 -55 28 20 44 21 28
1 -6 -8 -9 -19 -5 -25 9 -14 72 -13 78 3 4 9 7 9 18 0 7 -7 21 -13 31 -13 17
0 17 2 4 29 -9 16 -22 31 -31 35 -8 3 -20 18 -26 33 -9 24 -7 30 12 46 12 9
20 19 18 20 -2 2 -18 13 -36 25 -17 13 -35 31 -38 42 -4 11 -15 20 -26 20 -12
0 -17 4 -14 11 4 6 13 8 21 5 8 -3 14 -3 14 0 0 2 -9 8 -20 12 -20 8 -20 8 2
31 l22 24 9 -21 c6 -12 14 -22 19 -22 5 0 7 -4 3 -9 -7 -12 12 -24 25 -16 7 4
7 12 0 25 -11 21 0 33 24 24 12 -4 13 -11 6 -24 -9 -17 -4 -30 11 -30 5 0 16
15 25 33 9 17 24 41 34 52 10 11 20 29 22 40 2 16 -3 20 -22 20 -27 0 -50 -16
-50 -36 0 -7 -3 -9 -7 -5 -10 10 -11 46 -1 46 4 0 8 5 8 11 0 15 -67 3 -98
-17 -21 -14 -21 -16 -6 -31 15 -16 15 -18 -6 -35 -26 -21 -34 -22 -48 -5 -30
36 61 125 141 138 28 4 4 7 -75 8 l-118 1 0 -93z"/>
<path d="M375 240 c-16 -18 -20 -19 -35 -5 -21 19 -34 19 -49 1 -9 -11 -6 -12
14 -8 15 2 25 0 25 -7 0 -6 -11 -11 -25 -11 -17 0 -29 -9 -40 -30 -17 -33 -20
-60 -5 -60 5 0 14 -9 20 -21 11 -19 10 -20 -9 -9 -13 7 -21 7 -21 1 0 -6 10
-15 22 -22 20 -11 21 -12 2 -22 -20 -11 -34 -27 -34 -39 0 -5 54 -8 120 -8
l120 0 0 54 c0 64 -16 118 -29 97 -7 -10 -10 -9 -16 8 -3 11 -11 21 -16 21 -5
0 -4 6 3 14 11 13 15 13 26 -2 15 -19 16 -8 2 19 -6 10 -17 19 -25 19 -8 0
-14 5 -12 11 4 21 -19 20 -38 -1z"/>
</g>
</svg>
